<svg width="12" height="9" viewBox="0 0 12 9" fill="none" xmlns="http://www.w3.org/2000/svg">
<path fill-rule="evenodd" clip-rule="evenodd" d="M10.6997 1.7353L4.90871 7.7923C4.81584 7.88528 4.70555 7.95904 4.58415 8.00936C4.46275 8.05969 4.33262 8.08559 4.20121 8.08559C4.06979 8.08559 3.93967 8.05969 3.81828 8.00936C3.69688 7.95904 3.58659 7.88528 3.49371 7.7923L0.280716 4.7683C0.0985575 4.5797 -0.00224062 4.3271 3.78012e-05 4.0649C0.00231622 3.8027 0.107484 3.55189 0.292892 3.36648C0.4783 3.18107 0.729113 3.07591 0.99131 3.07363C1.25351 3.07135 1.50611 3.17214 1.69471 3.3543L4.16271 5.6783L9.28571 0.323304C9.37694 0.224049 9.48729 0.144265 9.61013 0.0887457C9.73298 0.0332259 9.86578 0.00311679 10.0006 0.000229425C10.1353 -0.00265794 10.2693 0.0217341 10.3944 0.0719419C10.5195 0.12215 10.6332 0.197137 10.7286 0.292393C10.824 0.38765 10.8991 0.501209 10.9495 0.626248C10.9999 0.751287 11.0245 0.88522 11.0218 1.02C11.0191 1.15478 10.9892 1.28763 10.9338 1.41055C10.8785 1.53347 10.7988 1.64394 10.6997 1.7353Z" fill="#37AC09"/>
</svg>
