<svg width="560" height="500" viewBox="0 0 560 500" fill="none" xmlns="http://www.w3.org/2000/svg">
<path fill-rule="evenodd" clip-rule="evenodd" d="M143.483 50.84L145.546 54.804L149.976 55.558L146.822 58.729L147.496 63.19L143.483 61.154L139.47 63.19L140.145 58.729L136.99 55.558L141.42 54.804L143.483 50.84Z" fill="#FAB600"/>
<path fill-rule="evenodd" clip-rule="evenodd" d="M158.483 50.84L160.546 54.804L164.976 55.558L161.822 58.729L162.496 63.19L158.483 61.154L154.47 63.19L155.145 58.729L151.99 55.558L156.42 54.804L158.483 50.84Z" fill="#CCCCCC"/>
<path fill-rule="evenodd" clip-rule="evenodd" d="M99 62C97.6155 62 96.2622 61.5895 95.111 60.8203C93.9599 60.0511 93.0627 58.9579 92.5328 57.6788C92.003 56.3997 91.8644 54.9922 92.1345 53.6344C92.4046 52.2765 93.0713 51.0292 94.0503 50.0503C95.0292 49.0713 96.2765 48.4046 97.6344 48.1345C98.9922 47.8644 100.4 48.003 101.679 48.5328C102.958 49.0627 104.051 49.9599 104.82 51.111C105.589 52.2622 106 53.6155 106 55C106 56.8565 105.262 58.637 103.95 59.9498C102.637 61.2625 100.857 62 99 62V62ZM101.828 53.584C101.924 53.4918 102 53.3814 102.052 53.2594C102.105 53.1374 102.132 53.0062 102.133 52.8734C102.134 52.7406 102.109 52.6089 102.059 52.486C102.009 52.3632 101.934 52.2515 101.84 52.1576C101.747 52.0637 101.635 51.9895 101.512 51.9392C101.389 51.8889 101.257 51.8636 101.125 51.8648C100.992 51.8659 100.861 51.8935 100.739 51.9459C100.617 51.9983 100.506 52.0745 100.414 52.17L99 53.584L97.585 52.17C97.3964 51.9878 97.1438 51.887 96.8816 51.8893C96.6194 51.8916 96.3686 51.9968 96.1832 52.1822C95.9978 52.3676 95.8926 52.6184 95.8903 52.8806C95.888 53.1428 95.9888 53.3954 96.171 53.584L97.585 55L96.171 56.414C95.9834 56.6015 95.8779 56.8559 95.8778 57.1212C95.8777 57.3864 95.983 57.6409 96.1705 57.8285C96.358 58.0161 96.6124 58.1216 96.8776 58.1217C97.1429 58.1218 97.3974 58.0165 97.585 57.829L99 56.412L100.415 57.826C100.508 57.9188 100.618 57.9925 100.74 58.0427C100.861 58.0929 100.991 58.1188 101.122 58.1187C101.254 58.1187 101.384 58.0927 101.505 58.0424C101.626 57.9921 101.737 57.9184 101.829 57.8255C101.922 57.7326 101.996 57.6223 102.046 57.5009C102.096 57.3796 102.122 57.2495 102.122 57.1181C102.122 56.9868 102.096 56.8567 102.046 56.7354C101.996 56.6141 101.922 56.5038 101.829 56.411L100.414 55L101.828 53.584Z" fill="#CCCCCC"/>
<path fill-rule="evenodd" clip-rule="evenodd" d="M382.449 49.838L385.139 55L390.912 55.982L386.8 60.12L387.679 65.935L382.449 63.281L377.218 65.935L378.1 60.12L373.989 55.986L379.76 55L382.449 49.834" fill="#FAB600"/>
<path fill-rule="evenodd" clip-rule="evenodd" d="M401.45 49.838L404.139 55L409.912 55.982L405.8 60.12L406.679 65.935L401.449 63.281L396.218 65.935L397.1 60.12L392.989 55.986L398.761 55L401.45 49.834" fill="#CCCCCC"/>
<path fill-rule="evenodd" clip-rule="evenodd" d="M89 204H99V206H89V204ZM69 206H65V210H63V206H59V204H63V200H65V204H69V206ZM11 206H8V209H6V206H3V204H6V201H8V204H11V206ZM29 204H37V206H29V204Z" fill="#333333"/>
<path fill-rule="evenodd" clip-rule="evenodd" d="M124.691 54.6669L118.9 60.7239C118.807 60.8169 118.697 60.8907 118.575 60.941C118.454 60.9913 118.324 61.0172 118.192 61.0172C118.061 61.0172 117.931 60.9913 117.81 60.941C117.688 60.8907 117.578 60.8169 117.485 60.7239L114.272 57.6999C114.09 57.5113 113.989 57.2587 113.991 56.9965C113.994 56.7343 114.099 56.4835 114.284 56.2981C114.47 56.1127 114.72 56.0075 114.983 56.0053C115.245 56.003 115.497 56.1038 115.686 56.2859L118.154 58.6099L123.277 53.2549C123.368 53.1557 123.479 53.0759 123.601 53.0204C123.724 52.9649 123.857 52.9348 123.992 52.9319C124.127 52.929 124.261 52.9534 124.386 53.0036C124.511 53.0538 124.624 53.1288 124.72 53.224C124.815 53.3193 124.89 53.4329 124.941 53.5579C124.991 53.6829 125.016 53.8169 125.013 53.9516C125.01 54.0864 124.98 54.2193 124.925 54.3422C124.87 54.4651 124.79 54.5756 124.691 54.6669Z" fill="#37AC09"/>
<path fill-rule="evenodd" clip-rule="evenodd" d="M90.683 17.683C90.5807 17.7861 90.4591 17.868 90.325 17.9238C90.191 17.9797 90.0472 18.0084 89.902 18.0084C89.7568 18.0084 89.613 17.9797 89.479 17.9238C89.3449 17.868 89.2233 17.7861 89.121 17.683L86.387 14.949C85.1516 15.7952 83.6447 16.1494 82.1617 15.9425C80.6786 15.7355 79.3263 14.9822 78.3698 13.8301C77.4132 12.6781 76.9213 11.2103 76.9905 9.71453C77.0597 8.21872 77.685 6.80266 78.7438 5.74384C79.8026 4.68501 81.2187 4.05974 82.7145 3.99055C84.2103 3.92136 85.678 4.41324 86.8301 5.3698C87.9821 6.32636 88.7355 7.67866 88.9424 9.16169C89.1494 10.6447 88.7951 12.1516 87.949 13.387L90.683 16.121C90.7861 16.2233 90.8679 16.3449 90.9238 16.479C90.9796 16.613 91.0084 16.7568 91.0084 16.902C91.0084 17.0472 90.9796 17.191 90.9238 17.3251C90.8679 17.4591 90.7861 17.5808 90.683 17.683V17.683ZM83 6.00003C82.2089 6.00003 81.4355 6.23462 80.7777 6.67415C80.1199 7.11367 79.6072 7.73839 79.3045 8.46929C79.0017 9.2002 78.9225 10.0045 79.0769 10.7804C79.2312 11.5563 79.6122 12.269 80.1716 12.8285C80.731 13.3879 81.4437 13.7688 82.2196 13.9232C82.9956 14.0775 83.7998 13.9983 84.5307 13.6955C85.2616 13.3928 85.8864 12.8801 86.3259 12.2223C86.7654 11.5645 87 10.7912 87 10C87 8.93916 86.5786 7.92175 85.8284 7.1716C85.0783 6.42145 84.0609 6.00003 83 6.00003Z" fill="#1D2029"/>
<path fill-rule="evenodd" clip-rule="evenodd" d="M119.5 10C119.797 10 120.087 10.088 120.333 10.2528C120.58 10.4176 120.772 10.6519 120.886 10.926C120.999 11.2001 121.029 11.5017 120.971 11.7926C120.913 12.0836 120.77 12.3509 120.561 12.5607C120.351 12.7704 120.084 12.9133 119.793 12.9712C119.502 13.0291 119.2 12.9994 118.926 12.8858C118.652 12.7723 118.418 12.58 118.253 12.3334C118.088 12.0867 118 11.7967 118 11.5C118 11.1022 118.158 10.7206 118.439 10.4393C118.721 10.158 119.102 10 119.5 10V10ZM125.5 10C125.797 10 126.087 10.088 126.333 10.2528C126.58 10.4176 126.772 10.6519 126.886 10.926C126.999 11.2001 127.029 11.5017 126.971 11.7926C126.913 12.0836 126.77 12.3509 126.561 12.5607C126.351 12.7704 126.084 12.9133 125.793 12.9712C125.502 13.0291 125.2 12.9994 124.926 12.8858C124.652 12.7723 124.418 12.58 124.253 12.3334C124.088 12.0867 124 11.7967 124 11.5C124 11.1022 124.158 10.7206 124.439 10.4393C124.721 10.158 125.102 10 125.5 10V10ZM131.5 10C131.797 10 132.087 10.088 132.333 10.2528C132.58 10.4176 132.772 10.6519 132.886 10.926C132.999 11.2001 133.029 11.5017 132.971 11.7926C132.913 12.0836 132.77 12.3509 132.561 12.5607C132.351 12.7704 132.084 12.9133 131.793 12.9712C131.502 13.0291 131.2 12.9994 130.926 12.8858C130.652 12.7723 130.418 12.58 130.253 12.3334C130.088 12.0867 130 11.7967 130 11.5C130 11.1022 130.158 10.7206 130.439 10.4393C130.721 10.158 131.102 10 131.5 10Z" fill="#1D2029"/>
<path fill-rule="evenodd" clip-rule="evenodd" d="M158.5 10C158.797 10 159.087 10.088 159.333 10.2528C159.58 10.4176 159.772 10.6519 159.886 10.926C159.999 11.2001 160.029 11.5017 159.971 11.7926C159.913 12.0836 159.77 12.3509 159.561 12.5607C159.351 12.7704 159.084 12.9133 158.793 12.9712C158.502 13.0291 158.2 12.9994 157.926 12.8858C157.652 12.7723 157.418 12.58 157.253 12.3334C157.088 12.0867 157 11.7967 157 11.5C157 11.1022 157.158 10.7206 157.439 10.4393C157.721 10.158 158.102 10 158.5 10ZM164.5 10C164.797 10 165.087 10.088 165.333 10.2528C165.58 10.4176 165.772 10.6519 165.886 10.926C165.999 11.2001 166.029 11.5017 165.971 11.7926C165.913 12.0836 165.77 12.3509 165.561 12.5607C165.351 12.7704 165.084 12.9133 164.793 12.9712C164.502 13.0291 164.2 12.9994 163.926 12.8858C163.652 12.7723 163.418 12.58 163.253 12.3334C163.088 12.0867 163 11.7967 163 11.5C163 11.1022 163.158 10.7206 163.439 10.4393C163.721 10.158 164.102 10 164.5 10ZM170.5 10C170.797 10 171.087 10.088 171.333 10.2528C171.58 10.4176 171.772 10.6519 171.886 10.926C171.999 11.2001 172.029 11.5017 171.971 11.7926C171.913 12.0836 171.77 12.3509 171.561 12.5607C171.351 12.7704 171.084 12.9133 170.793 12.9712C170.502 13.0291 170.2 12.9994 169.926 12.8858C169.652 12.7723 169.418 12.58 169.253 12.3334C169.088 12.0867 169 11.7967 169 11.5C169 11.1022 169.158 10.7206 169.439 10.4393C169.721 10.158 170.102 10 170.5 10Z" fill="white"/>
<path fill-rule="evenodd" clip-rule="evenodd" d="M43 97H40V98C40 98.2652 39.8946 98.5196 39.7071 98.7071C39.5196 98.8946 39.2652 99 39 99H33C32.7348 99 32.4804 98.8946 32.2929 98.7071C32.1054 98.5196 32 98.2652 32 98V97H29C28.7348 97 28.4804 96.8946 28.2929 96.7071C28.1054 96.5196 28 96.2652 28 96V90C28 89.7348 28.1054 89.4804 28.2929 89.2929C28.4804 89.1054 28.7348 89 29 89H32V86C32 85.7348 32.1054 85.4804 32.2929 85.2929C32.4804 85.1054 32.7348 85 33 85H39C39.2652 85 39.5196 85.1054 39.7071 85.2929C39.8946 85.4804 40 85.7348 40 86V89H43C43.2652 89 43.5196 89.1054 43.7071 89.2929C43.8946 89.4804 44 89.7348 44 90V96C44 96.2652 43.8946 96.5196 43.7071 96.7071C43.5196 96.8946 43.2652 97 43 97ZM34 97H38V95H34V97ZM38 87H34V89H38V87ZM42 91H30V95H32V94C32 93.7348 32.1054 93.4804 32.2929 93.2929C32.4804 93.1054 32.7348 93 33 93H39C39.2652 93 39.5196 93.1054 39.7071 93.2929C39.8946 93.4804 40 93.7348 40 94V95H42V91Z" fill="#999999"/>
<path d="M45 55H34" stroke="white" stroke-width="2" stroke-linecap="round" stroke-linejoin="round"/>
<path d="M41 50L46 55L41 60" stroke="white" stroke-width="2" stroke-linecap="round" stroke-linejoin="round"/>
<path fill-rule="evenodd" clip-rule="evenodd" d="M239.786 58.517L239.837 58.537L239.465 58.9L239.414 58.95L231.165 67H230.833L222.945 59.3C222.705 59.1035 222.482 58.8863 222.28 58.651L222.119 58.494L222.141 58.486C221.408 57.5737 221.005 56.4396 221 55.269C221.017 54.0895 221.423 52.9486 222.156 52.0241C222.889 51.0997 223.907 50.4437 225.052 50.1583C226.196 49.873 227.403 49.9743 228.484 50.4465C229.565 50.9188 230.46 51.7354 231.028 52.769C231.589 51.7382 232.475 50.9222 233.549 50.4486C234.623 49.975 235.823 49.8705 236.963 50.1515C238.102 50.4324 239.116 51.083 239.847 52.0015C240.577 52.92 240.983 54.0546 241 55.228C240.993 56.4328 240.564 57.5969 239.786 58.517V58.517ZM235.686 51.993C235.416 51.9962 235.147 52.0325 234.886 52.101C234.786 52.123 234.697 52.157 234.603 52.188C234.498 52.2232 234.394 52.2635 234.293 52.309C233.696 52.5599 233.182 52.972 232.806 53.499V53.499C232.704 53.6507 232.613 53.8102 232.536 53.976L231.06 56.576L229.448 53.876C229.375 53.7306 229.291 53.5906 229.198 53.457L229.155 53.385L229.145 53.393C229.034 53.2561 228.912 53.1277 228.782 53.009C228.748 52.973 228.716 52.935 228.682 52.901C228.616 52.842 228.547 52.789 228.477 52.735C228.315 52.6028 228.141 52.4859 227.957 52.386H227.95C227.445 52.1058 226.875 51.9616 226.297 51.9676C225.719 51.9736 225.153 52.1295 224.654 52.4201C224.154 52.7107 223.739 53.1261 223.448 53.6255C223.157 54.1249 223.001 54.6912 222.995 55.269C222.996 55.8073 223.13 56.337 223.384 56.8115C223.639 57.286 224.006 57.6907 224.453 57.99L230.821 64.19H231.082L237.523 57.921C237.969 57.6286 238.335 57.23 238.589 56.761C238.843 56.292 238.977 55.7673 238.978 55.234C238.975 54.805 238.888 54.3808 238.721 53.9856C238.554 53.5904 238.31 53.2321 238.005 52.931C237.699 52.63 237.337 52.3922 236.939 52.2312C236.542 52.0703 236.116 51.9893 235.687 51.993H235.686Z" fill="white"/>
<path fill-rule="evenodd" clip-rule="evenodd" d="M476.927 52.639C476.969 52.7451 476.992 52.8579 476.994 52.972C476.996 52.9812 476.999 52.9906 477 53C477 53.012 476.993 53.022 476.993 53.034C476.999 53.0942 476.999 53.1548 476.993 53.215L475.9 58.1C475.893 58.1184 475.885 58.1364 475.876 58.154C475.843 58.3886 475.727 58.6037 475.549 58.76C475.371 58.9162 475.143 59.0032 474.906 59.005H465C464.746 58.9838 464.505 58.8794 464.316 58.7078C464.127 58.5363 464 58.3072 463.954 58.056L463.048 51H461C460.735 51 460.48 50.8946 460.293 50.7071C460.105 50.5196 460 50.2652 460 50C460 49.7348 460.105 49.4804 460.293 49.2929C460.48 49.1054 460.735 49 461 49H463.906C463.931 49 463.952 49.012 463.977 49.014C464.086 49.0176 464.193 49.0392 464.295 49.078V49.078C464.463 49.1433 464.609 49.253 464.719 49.3954C464.829 49.5377 464.898 49.7073 464.919 49.886L465.192 52H476C476.031 52.0047 476.062 52.0111 476.093 52.019C476.139 52.0156 476.185 52.0156 476.231 52.019C476.265 52.0324 476.299 52.0478 476.331 52.065C476.369 52.0794 476.407 52.0961 476.443 52.115C476.529 52.1559 476.608 52.2091 476.678 52.273C476.695 52.289 476.71 52.306 476.726 52.323C476.8 52.4013 476.86 52.4911 476.905 52.589C476.916 52.607 476.921 52.623 476.927 52.639ZM465.835 57H474.095L474.765 54H465.449L465.835 57ZM466.504 60.012C466.995 60.0152 467.475 60.1638 467.882 60.4391C468.289 60.7144 468.605 61.104 468.791 61.5589C468.977 62.0138 469.024 62.5136 468.926 62.9951C468.828 63.4767 468.59 63.9185 468.242 64.2649C467.893 64.6112 467.45 64.8466 466.968 64.9413C466.485 65.036 465.986 64.9858 465.532 64.797C465.079 64.6083 464.691 64.2894 464.418 63.8806C464.146 63.4718 464 62.9914 464 62.5C464.003 61.839 464.268 61.2062 464.736 60.74C465.205 60.2737 465.839 60.012 466.5 60.012H466.504ZM466.504 63.075C466.618 63.0742 466.728 63.0398 466.822 62.9762C466.916 62.9125 466.989 62.8224 467.032 62.7173C467.075 62.6122 467.086 62.4967 467.063 62.3854C467.041 62.2741 466.986 62.172 466.905 62.092C466.825 62.012 466.722 61.9576 466.611 61.9358C466.499 61.9139 466.384 61.9255 466.279 61.9692C466.174 62.0128 466.085 62.0865 466.022 62.181C465.959 62.2754 465.925 62.3864 465.925 62.5C465.926 62.6523 465.986 62.7983 466.094 62.906C466.202 63.0137 466.348 63.0745 466.5 63.075H466.504ZM473.504 59.996C473.998 59.996 474.482 60.1426 474.893 60.4173C475.304 60.692 475.624 61.0825 475.814 61.5393C476.003 61.9961 476.052 62.4988 475.956 62.9837C475.86 63.4687 475.621 63.9141 475.272 64.2638C474.922 64.6134 474.477 64.8515 473.992 64.948C473.507 65.0444 473.004 64.9949 472.547 64.8057C472.09 64.6165 471.7 64.296 471.425 63.8849C471.151 63.4738 471.004 62.9905 471.004 62.496C471.005 61.8343 471.268 61.2001 471.736 60.7322C472.204 60.2644 472.838 60.0011 473.5 60L473.504 59.996ZM473.504 63.075C473.618 63.0742 473.728 63.0398 473.822 62.9762C473.916 62.9125 473.989 62.8224 474.032 62.7173C474.075 62.6122 474.086 62.4967 474.063 62.3854C474.041 62.2741 473.986 62.172 473.905 62.092C473.825 62.012 473.722 61.9576 473.611 61.9358C473.499 61.9139 473.384 61.9255 473.279 61.9692C473.174 62.0128 473.085 62.0865 473.022 62.181C472.959 62.2754 472.925 62.3864 472.925 62.5C472.926 62.6523 472.986 62.7983 473.094 62.906C473.202 63.0137 473.348 63.0745 473.5 63.075H473.504Z" fill="white"/>
<path fill-rule="evenodd" clip-rule="evenodd" d="M277 55C277.265 55 277.52 55.1054 277.707 55.2929C277.895 55.4804 278 55.7348 278 56V69H276V56C276 55.7348 276.105 55.4804 276.293 55.2929C276.48 55.1054 276.735 55 277 55ZM272 58C272.265 58 272.52 58.1054 272.707 58.2929C272.895 58.4804 273 58.7348 273 59V69H271V59C271 58.7348 271.105 58.4804 271.293 58.2929C271.48 58.1054 271.735 58 272 58ZM267 52C267.265 52 267.52 52.1054 267.707 52.2929C267.895 52.4804 268 52.7348 268 53V69H266V53C266 52.7348 266.105 52.4804 266.293 52.2929C266.48 52.1054 266.735 52 267 52ZM262 60C262.265 60 262.52 60.1054 262.707 60.2929C262.895 60.4804 263 60.7348 263 61V69H261V61C261 60.7348 261.105 60.4804 261.293 60.2929C261.48 60.1054 261.735 60 262 60Z" fill="white"/>
<path fill-rule="evenodd" clip-rule="evenodd" d="M220 7C220.265 7 220.52 7.10536 220.707 7.29289C220.895 7.48043 221 7.73478 221 8V21H219V8C219 7.73478 219.105 7.48043 219.293 7.29289C219.48 7.10536 219.735 7 220 7V7ZM215 10C215.265 10 215.52 10.1054 215.707 10.2929C215.895 10.4804 216 10.7348 216 11V21H214V11C214 10.7348 214.105 10.4804 214.293 10.2929C214.48 10.1054 214.735 10 215 10ZM210 4C210.265 4 210.52 4.10536 210.707 4.29289C210.895 4.48043 211 4.73478 211 5V21H209V5C209 4.73478 209.105 4.48043 209.293 4.29289C209.48 4.10536 209.735 4 210 4V4ZM205 12C205.265 12 205.52 12.1054 205.707 12.2929C205.895 12.4804 206 12.7348 206 13V21H204V13C204 12.7348 204.105 12.4804 204.293 12.2929C204.48 12.1054 204.735 12 205 12Z" fill="#999999"/>
<path fill-rule="evenodd" clip-rule="evenodd" d="M257 8C257.265 8 257.52 8.10536 257.707 8.29289C257.895 8.48043 258 8.73478 258 9V22H256V9C256 8.73478 256.105 8.48043 256.293 8.29289C256.48 8.10536 256.735 8 257 8ZM252 11C252.265 11 252.52 11.1054 252.707 11.2929C252.895 11.4804 253 11.7348 253 12V22H251V12C251 11.7348 251.105 11.4804 251.293 11.2929C251.48 11.1054 251.735 11 252 11ZM247 5C247.265 5 247.52 5.10536 247.707 5.29289C247.895 5.48043 248 5.73478 248 6V22H246V6C246 5.73478 246.105 5.48043 246.293 5.29289C246.48 5.10536 246.735 5 247 5V5ZM242 13C242.265 13 242.52 13.1054 242.707 13.2929C242.895 13.4804 243 13.7348 243 14V22H241V14C241 13.7348 241.105 13.4804 241.293 13.2929C241.48 13.1054 241.735 13 242 13Z" fill="#333333"/>
<path fill-rule="evenodd" clip-rule="evenodd" d="M298.786 13.517L298.837 13.537L298.465 13.899L298.414 13.949L290.165 22H289.833L281.945 14.3C281.705 14.1034 281.482 13.8863 281.28 13.651L281.119 13.494L281.141 13.486C280.408 12.5737 280.005 11.4396 280 10.269C280.017 9.08948 280.423 7.94858 281.156 7.02415C281.889 6.09972 282.907 5.4437 284.052 5.15834C285.196 4.87298 286.403 4.97431 287.484 5.44653C288.565 5.91876 289.46 6.73535 290.028 7.76904C290.589 6.73817 291.475 5.92216 292.549 5.44857C293.623 4.97499 294.823 4.87051 295.963 5.15148C297.102 5.43245 298.116 6.08302 298.847 7.00151C299.577 7.91999 299.983 9.05462 300 10.228C299.993 11.4328 299.564 12.5969 298.786 13.517V13.517ZM294.686 6.99304C294.416 6.99616 294.147 7.03243 293.886 7.10104C293.786 7.12304 293.698 7.15704 293.603 7.18704C293.508 7.21704 293.394 7.26104 293.293 7.30804C292.696 7.55889 292.182 7.97096 291.806 8.49804V8.49804C291.704 8.64971 291.613 8.80921 291.536 8.97504L290.06 11.575L288.448 8.87504C288.375 8.72966 288.291 8.58965 288.198 8.45604L288.155 8.38404L288.145 8.39204C288.034 8.25509 287.913 8.12672 287.782 8.00804C287.748 7.97204 287.716 7.93404 287.682 7.90004C287.616 7.84104 287.547 7.78804 287.482 7.73404C287.32 7.60177 287.146 7.48493 286.962 7.38504H286.956C286.451 7.10488 285.881 6.96075 285.303 6.96675C284.725 6.97275 284.159 7.12867 283.659 7.41925C283.16 7.70983 282.744 8.12513 282.453 8.62449C282.163 9.12385 282.006 9.69017 282 10.268C282.001 10.8063 282.135 11.336 282.389 11.8105C282.644 12.285 283.011 12.6897 283.458 12.989L289.826 19.189H290.087L296.528 12.92C296.974 12.6276 297.34 12.229 297.594 11.76C297.848 11.291 297.982 10.7663 297.983 10.233C297.98 9.80368 297.892 9.37914 297.725 8.98375C297.557 8.58836 297.314 8.22989 297.008 7.92889C296.701 7.6279 296.339 7.3903 295.941 7.2297C295.542 7.06911 295.116 6.98868 294.687 6.99304H294.686Z" fill="#999999"/>
<path fill-rule="evenodd" clip-rule="evenodd" d="M410.786 13.517L410.837 13.537L410.465 13.899L410.414 13.949L402.165 22H401.833L393.945 14.3C393.705 14.1034 393.482 13.8863 393.28 13.651L393.119 13.494L393.141 13.486C392.408 12.5737 392.005 11.4396 392 10.269C392.017 9.08948 392.423 7.94858 393.156 7.02415C393.889 6.09972 394.907 5.4437 396.052 5.15834C397.196 4.87298 398.403 4.97431 399.484 5.44653C400.565 5.91876 401.46 6.73535 402.028 7.76904C402.589 6.73817 403.475 5.92216 404.549 5.44857C405.623 4.97499 406.823 4.87051 407.963 5.15148C409.102 5.43245 410.116 6.08302 410.847 7.00151C411.577 7.91999 411.983 9.05462 412 10.228C411.993 11.4328 411.564 12.5969 410.786 13.517V13.517ZM406.686 6.99304C406.416 6.99616 406.147 7.03243 405.886 7.10104C405.786 7.12304 405.698 7.15704 405.603 7.18704C405.508 7.21704 405.394 7.26104 405.293 7.30804C404.696 7.55889 404.182 7.97096 403.806 8.49804V8.49804C403.704 8.64971 403.613 8.80921 403.536 8.97504L402.06 11.575L400.448 8.87504C400.375 8.72966 400.291 8.58965 400.198 8.45604L400.155 8.38404L400.145 8.39204C400.034 8.25474 399.913 8.12604 399.782 8.00704C399.748 7.97104 399.716 7.93404 399.682 7.89904C399.616 7.84004 399.547 7.78704 399.482 7.73204C399.32 7.59977 399.146 7.48293 398.962 7.38304H398.955C398.45 7.10281 397.88 6.95863 397.302 6.96461C396.724 6.97059 396.158 7.12651 395.659 7.41712C395.159 7.70774 394.744 8.12307 394.453 8.62247C394.162 9.12186 394.006 9.6882 394 10.266C394.001 10.8045 394.135 11.3344 394.389 11.809C394.643 12.2837 395.011 12.6886 395.458 12.988L401.826 19.188H402.087L408.528 12.919C408.974 12.6266 409.34 12.228 409.594 11.759C409.848 11.29 409.982 10.7653 409.983 10.232C409.98 9.80277 409.892 9.37833 409.725 8.98306C409.557 8.58778 409.313 8.22943 409.007 7.92854C408.701 7.62765 408.338 7.39014 407.94 7.22961C407.542 7.06907 407.116 6.98868 406.687 6.99304H406.686Z" fill="#333333"/>
<path fill-rule="evenodd" clip-rule="evenodd" d="M185 61C185.593 61 186.173 61.1759 186.667 61.5056C187.16 61.8352 187.545 62.3038 187.772 62.852C187.999 63.4001 188.058 64.0033 187.942 64.5853C187.827 65.1672 187.541 65.7018 187.121 66.1213C186.702 66.5409 186.167 66.8266 185.585 66.9424C185.003 67.0581 184.4 66.9987 183.852 66.7716C183.304 66.5446 182.835 66.1601 182.506 65.6667C182.176 65.1734 182 64.5933 182 64C182 63.2044 182.316 62.4413 182.879 61.8787C183.441 61.3161 184.204 61 185 61ZM184.969 62.922C185.182 62.922 185.391 62.9852 185.568 63.1037C185.745 63.2221 185.883 63.3905 185.965 63.5875C186.047 63.7844 186.068 64.0012 186.026 64.2103C185.985 64.4194 185.882 64.6115 185.731 64.7623C185.581 64.913 185.388 65.0157 185.179 65.0573C184.97 65.0989 184.753 65.0775 184.556 64.9959C184.359 64.9143 184.191 64.7762 184.073 64.5989C183.954 64.4216 183.891 64.2132 183.891 64C183.891 63.7141 184.005 63.4399 184.207 63.2377C184.409 63.0356 184.683 62.922 184.969 62.922V62.922ZM196.991 54.335L195.821 59.418L194.898 60.006L182.677 60.012L181.759 59.15L181.071 53.55L180.551 50.009H179V50H178C177.735 50 177.48 49.8946 177.293 49.7071C177.105 49.5196 177 49.2652 177 49C177 48.7348 177.105 48.4804 177.293 48.2929C177.48 48.1054 177.735 48 178 48H181.594C181.611 48 181.626 48.009 181.643 48.01H181.721L181.742 48.03C181.941 48.0596 182.126 48.1501 182.272 48.2891C182.417 48.428 182.516 48.6086 182.555 48.806L182.566 48.817L182.579 48.927C182.579 48.952 182.594 48.974 182.594 48.999C182.594 49.006 182.594 49.012 182.594 49.019L182.94 52.013H196.268L196.995 52.57V54.335H196.991ZM183.134 54L183.634 58H194.134L195.058 54H183.134ZM193 61C193.593 61 194.173 61.1759 194.667 61.5056C195.16 61.8352 195.545 62.3038 195.772 62.852C195.999 63.4001 196.058 64.0033 195.942 64.5853C195.827 65.1672 195.541 65.7018 195.121 66.1213C194.702 66.5409 194.167 66.8266 193.585 66.9424C193.003 67.0581 192.4 66.9987 191.852 66.7716C191.304 66.5446 190.835 66.1601 190.506 65.6667C190.176 65.1734 190 64.5933 190 64C190 63.2044 190.316 62.4413 190.879 61.8787C191.441 61.3161 192.204 61 193 61ZM192.984 62.938C193.197 62.938 193.406 63.0012 193.583 63.1197C193.76 63.2381 193.898 63.4065 193.98 63.6035C194.062 63.8004 194.083 64.0172 194.041 64.2263C194 64.4354 193.897 64.6275 193.746 64.7783C193.596 64.929 193.403 65.0317 193.194 65.0733C192.985 65.1149 192.768 65.0935 192.571 65.0119C192.374 64.9303 192.206 64.7922 192.088 64.6149C191.969 64.4376 191.906 64.2292 191.906 64.016C191.906 63.7301 192.02 63.4559 192.222 63.2537C192.424 63.0516 192.698 62.938 192.984 62.938Z" fill="white"/>
<path fill-rule="evenodd" clip-rule="evenodd" d="M340.991 10.335L339.821 15.418L338.898 16.006L326.677 16.012L325.759 15.15L325.071 9.55L324.551 6.009L322 6C321.735 6 321.48 5.89464 321.293 5.70711C321.105 5.51957 321 5.26522 321 5C321 4.73478 321.105 4.48043 321.293 4.29289C321.48 4.10536 321.735 4 322 4H325.594C325.611 4 325.626 4.009 325.643 4.01H325.721L325.742 4.03C325.941 4.05956 326.126 4.15004 326.271 4.28901C326.417 4.42797 326.515 4.60859 326.554 4.806L326.566 4.817L326.579 4.927C326.579 4.952 326.594 4.974 326.594 4.999C326.594 5.006 326.594 5.012 326.594 5.019L326.94 8.013H340.268L340.995 8.57V10.335H340.991ZM327.134 10L327.634 14H338.134L339.058 10H327.134ZM329 17C329.593 17 330.173 17.1759 330.667 17.5056C331.16 17.8352 331.545 18.3038 331.772 18.8519C331.999 19.4001 332.058 20.0033 331.942 20.5853C331.827 21.1672 331.541 21.7018 331.121 22.1213C330.702 22.5409 330.167 22.8266 329.585 22.9424C329.003 23.0581 328.4 22.9987 327.852 22.7716C327.304 22.5446 326.835 22.1601 326.506 21.6667C326.176 21.1734 326 20.5933 326 20C326 19.2044 326.316 18.4413 326.879 17.8787C327.441 17.3161 328.204 17 329 17ZM328.969 21.078C329.182 21.078 329.391 21.0148 329.568 20.8963C329.745 20.7779 329.883 20.6095 329.965 20.4125C330.047 20.2156 330.068 19.9988 330.026 19.7897C329.985 19.5806 329.882 19.3885 329.731 19.2377C329.581 19.087 329.388 18.9843 329.179 18.9427C328.97 18.9011 328.753 18.9225 328.556 19.0041C328.359 19.0856 328.191 19.2238 328.073 19.4011C327.954 19.5784 327.891 19.7868 327.891 20C327.891 20.2859 328.005 20.5601 328.207 20.7623C328.409 20.9644 328.683 21.078 328.969 21.078V21.078ZM337 17C337.593 17 338.173 17.1759 338.667 17.5056C339.16 17.8352 339.545 18.3038 339.772 18.8519C339.999 19.4001 340.058 20.0033 339.942 20.5853C339.827 21.1672 339.541 21.7018 339.121 22.1213C338.702 22.5409 338.167 22.8266 337.585 22.9424C337.003 23.0581 336.4 22.9987 335.852 22.7716C335.304 22.5446 334.835 22.1601 334.506 21.6667C334.176 21.1734 334 20.5933 334 20C334 19.2044 334.316 18.4413 334.879 17.8787C335.441 17.3161 336.204 17 337 17ZM336.984 21.094C337.197 21.094 337.406 21.0308 337.583 20.9123C337.76 20.7939 337.898 20.6255 337.98 20.4285C338.062 20.2316 338.083 20.0148 338.041 19.8057C338 19.5966 337.897 19.4045 337.746 19.2537C337.595 19.103 337.403 19.0003 337.194 18.9587C336.985 18.9171 336.768 18.9385 336.571 19.0201C336.374 19.1016 336.206 19.2398 336.088 19.4171C335.969 19.5944 335.906 19.8028 335.906 20.016C335.906 20.3019 336.02 20.5761 336.222 20.7783C336.424 20.9804 336.698 21.094 336.984 21.094V21.094Z" fill="#999999"/>
<path fill-rule="evenodd" clip-rule="evenodd" d="M373.991 10.335L372.821 15.418L371.898 16.006L359.677 16.012L358.759 15.15L358.071 9.55L357.551 6.009H356V6H355C354.735 6 354.48 5.89464 354.293 5.70711C354.105 5.51957 354 5.26522 354 5C354 4.73478 354.105 4.48043 354.293 4.29289C354.48 4.10536 354.735 4 355 4H358.594C358.611 4 358.626 4.009 358.643 4.01H358.721L358.742 4.03C358.941 4.05956 359.126 4.15004 359.271 4.28901C359.417 4.42797 359.515 4.60859 359.554 4.806L359.566 4.817L359.579 4.927C359.579 4.952 359.594 4.974 359.594 4.999C359.594 5.006 359.594 5.012 359.594 5.019L359.94 8.013H373.268L373.995 8.57V10.335H373.991ZM360.134 10L360.634 14H371.134L372.058 10H360.134ZM362 17C362.593 17 363.173 17.1759 363.667 17.5056C364.16 17.8352 364.545 18.3038 364.772 18.8519C364.999 19.4001 365.058 20.0033 364.942 20.5853C364.827 21.1672 364.541 21.7018 364.121 22.1213C363.702 22.5409 363.167 22.8266 362.585 22.9424C362.003 23.0581 361.4 22.9987 360.852 22.7716C360.304 22.5446 359.835 22.1601 359.506 21.6667C359.176 21.1734 359 20.5933 359 20C359 19.2044 359.316 18.4413 359.879 17.8787C360.441 17.3161 361.204 17 362 17ZM361.969 21.078C362.182 21.078 362.391 21.0148 362.568 20.8963C362.745 20.7779 362.883 20.6095 362.965 20.4125C363.047 20.2156 363.068 19.9988 363.026 19.7897C362.985 19.5806 362.882 19.3885 362.731 19.2377C362.581 19.087 362.388 18.9843 362.179 18.9427C361.97 18.9011 361.753 18.9225 361.556 19.0041C361.359 19.0856 361.191 19.2238 361.073 19.4011C360.954 19.5784 360.891 19.7868 360.891 20C360.891 20.2859 361.005 20.5601 361.207 20.7623C361.409 20.9644 361.683 21.078 361.969 21.078V21.078ZM370 17C370.593 17 371.173 17.1759 371.667 17.5056C372.16 17.8352 372.545 18.3038 372.772 18.8519C372.999 19.4001 373.058 20.0033 372.942 20.5853C372.827 21.1672 372.541 21.7018 372.121 22.1213C371.702 22.5409 371.167 22.8266 370.585 22.9424C370.003 23.0581 369.4 22.9987 368.852 22.7716C368.304 22.5446 367.835 22.1601 367.506 21.6667C367.176 21.1734 367 20.5933 367 20C367 19.2044 367.316 18.4413 367.879 17.8787C368.441 17.3161 369.204 17 370 17ZM369.984 21.094C370.197 21.094 370.406 21.0308 370.583 20.9123C370.76 20.7939 370.898 20.6255 370.98 20.4285C371.062 20.2316 371.083 20.0148 371.041 19.8057C371 19.5966 370.897 19.4045 370.746 19.2537C370.595 19.103 370.403 19.0003 370.194 18.9587C369.985 18.9171 369.768 18.9385 369.571 19.0201C369.374 19.1016 369.206 19.2398 369.088 19.4171C368.969 19.5944 368.906 19.8028 368.906 20.016C368.906 20.3019 369.02 20.5761 369.222 20.7783C369.424 20.9804 369.698 21.094 369.984 21.094V21.094Z" fill="#333333"/>
<path fill-rule="evenodd" clip-rule="evenodd" d="M436 54C435.603 54.0006 435.214 53.8821 434.885 53.66L430 56.984C430 56.989 430 56.994 430 56.999C430 57.004 430 57.009 430 57.015L434.887 60.339C435.258 60.0908 435.7 59.9736 436.145 60.006C436.59 60.0384 437.011 60.2185 437.342 60.5178C437.673 60.8171 437.894 61.2183 437.97 61.6577C438.047 62.097 437.974 62.5494 437.764 62.9428C437.554 63.3362 437.219 63.6481 436.811 63.829C436.403 64.0098 435.947 64.0491 435.514 63.9408C435.081 63.8324 434.697 63.5825 434.423 63.2309C434.149 62.8793 434 62.446 434 62C434 61.943 434.012 61.889 434.017 61.833L429.223 58.572C428.928 58.8042 428.574 58.9487 428.2 58.989C427.827 59.0292 427.45 58.9636 427.112 58.7997C426.775 58.6357 426.49 58.3801 426.291 58.0619C426.092 57.7437 425.986 57.3759 425.986 57.0005C425.986 56.6251 426.092 56.2573 426.291 55.9391C426.49 55.6209 426.775 55.3653 427.112 55.2013C427.45 55.0374 427.827 54.9718 428.2 55.012C428.574 55.0523 428.928 55.1968 429.223 55.429L434.017 52.168C434.017 52.112 434 52.058 434 52.001C434 51.6054 434.117 51.2186 434.337 50.8896C434.556 50.5606 434.869 50.3041 435.234 50.1525C435.599 50.001 436.002 49.9613 436.39 50.0383C436.778 50.1154 437.134 50.3058 437.414 50.5854C437.694 50.8651 437.884 51.2215 437.961 51.6095C438.039 51.9974 437.999 52.3996 437.848 52.7651C437.696 53.1306 437.44 53.4431 437.111 53.6629C436.782 53.8827 436.396 54 436 54Z" fill="#444444"/>
<path fill-rule="evenodd" clip-rule="evenodd" d="M7 6H17C17.2652 6 17.5196 6.10536 17.7071 6.29289C17.8946 6.48043 18 6.73478 18 7C18 7.26522 17.8946 7.51957 17.7071 7.70711C17.5196 7.89464 17.2652 8 17 8H7C6.73478 8 6.48043 7.89464 6.29289 7.70711C6.10536 7.51957 6 7.26522 6 7C6 6.73478 6.10536 6.48043 6.29289 6.29289C6.48043 6.10536 6.73478 6 7 6V6ZM7 10H17C17.2652 10 17.5196 10.1054 17.7071 10.2929C17.8946 10.4804 18 10.7348 18 11C18 11.2652 17.8946 11.5196 17.7071 11.7071C17.5196 11.8946 17.2652 12 17 12H7C6.73478 12 6.48043 11.8946 6.29289 11.7071C6.10536 11.5196 6 11.2652 6 11C6 10.7348 6.10536 10.4804 6.29289 10.2929C6.48043 10.1054 6.73478 10 7 10ZM7 14H17C17.2652 14 17.5196 14.1054 17.7071 14.2929C17.8946 14.4804 18 14.7348 18 15C18 15.2652 17.8946 15.5196 17.7071 15.7071C17.5196 15.8946 17.2652 16 17 16H7C6.73478 16 6.48043 15.8946 6.29289 15.7071C6.10536 15.5196 6 15.2652 6 15C6 14.7348 6.10536 14.4804 6.29289 14.2929C6.48043 14.1054 6.73478 14 7 14Z" fill="white"/>
<path fill-rule="evenodd" clip-rule="evenodd" d="M7 48H17C17.2652 48 17.5196 48.1054 17.7071 48.2929C17.8946 48.4804 18 48.7348 18 49C18 49.2652 17.8946 49.5196 17.7071 49.7071C17.5196 49.8946 17.2652 50 17 50H7C6.73478 50 6.48043 49.8946 6.29289 49.7071C6.10536 49.5196 6 49.2652 6 49C6 48.7348 6.10536 48.4804 6.29289 48.2929C6.48043 48.1054 6.73478 48 7 48ZM7 52H17C17.2652 52 17.5196 52.1054 17.7071 52.2929C17.8946 52.4804 18 52.7348 18 53C18 53.2652 17.8946 53.5196 17.7071 53.7071C17.5196 53.8946 17.2652 54 17 54H7C6.73478 54 6.48043 53.8946 6.29289 53.7071C6.10536 53.5196 6 53.2652 6 53C6 52.7348 6.10536 52.4804 6.29289 52.2929C6.48043 52.1054 6.73478 52 7 52ZM7 56H17C17.2652 56 17.5196 56.1054 17.7071 56.2929C17.8946 56.4804 18 56.7348 18 57C18 57.2652 17.8946 57.5196 17.7071 57.7071C17.5196 57.8946 17.2652 58 17 58H7C6.73478 58 6.48043 57.8946 6.29289 57.7071C6.10536 57.5196 6 57.2652 6 57C6 56.7348 6.10536 56.4804 6.29289 56.2929C6.48043 56.1054 6.73478 56 7 56Z" fill="#1D2029"/>
<path fill-rule="evenodd" clip-rule="evenodd" d="M311 71H299C298.528 70.9986 298.073 70.8307 297.713 70.5258C297.353 70.221 297.113 69.7989 297.034 69.334C297.199 67.3345 298.109 65.4701 299.585 64.111C301.061 62.7519 302.994 61.9974 305 61.9974C307.006 61.9974 308.939 62.7519 310.415 64.111C311.891 65.4701 312.801 67.3345 312.966 69.334C312.887 69.7989 312.647 70.221 312.287 70.5258C311.927 70.8307 311.472 70.9986 311 71ZM305 64C303.584 64.0014 302.215 64.5044 301.135 65.4198C300.054 66.3351 299.334 67.6036 299.1 69H310.9C310.666 67.6036 309.946 66.3351 308.865 65.4198C307.785 64.5044 306.416 64.0014 305 64V64ZM305 61C304.011 61 303.044 60.7068 302.222 60.1574C301.4 59.6079 300.759 58.8271 300.381 57.9134C300.002 56.9998 299.903 55.9945 300.096 55.0245C300.289 54.0546 300.765 53.1637 301.464 52.4645C302.164 51.7652 303.055 51.289 304.025 51.0961C304.994 50.9031 306 51.0022 306.913 51.3806C307.827 51.759 308.608 52.3999 309.157 53.2222C309.707 54.0444 310 55.0111 310 56C310 57.3261 309.473 58.5979 308.536 59.5355C307.598 60.4732 306.326 61 305 61V61ZM305 53C304.407 53 303.827 53.176 303.333 53.5056C302.84 53.8352 302.455 54.3038 302.228 54.852C302.001 55.4001 301.942 56.0033 302.058 56.5853C302.173 57.1672 302.459 57.7018 302.879 58.1213C303.298 58.5409 303.833 58.8266 304.415 58.9424C304.997 59.0581 305.6 58.9987 306.148 58.7716C306.696 58.5446 307.165 58.1601 307.494 57.6667C307.824 57.1734 308 56.5933 308 56C308 55.2044 307.684 54.4413 307.121 53.8787C306.559 53.3161 305.796 53 305 53V53Z" fill="white"/>
<path fill-rule="evenodd" clip-rule="evenodd" d="M345 74C342.429 74 339.915 73.2376 337.778 71.8091C335.64 70.3807 333.974 68.3503 332.99 65.9749C332.006 63.5995 331.748 60.9856 332.25 58.4638C332.751 55.9421 333.99 53.6257 335.808 51.8076C337.626 49.9895 339.942 48.7514 342.464 48.2498C344.986 47.7482 347.599 48.0056 349.975 48.9896C352.35 49.9735 354.381 51.6398 355.809 53.7776C357.238 55.9154 358 58.4288 358 61C358 64.4478 356.63 67.7544 354.192 70.1924C351.754 72.6304 348.448 74 345 74ZM351.257 70.041C350.512 69.0933 349.562 68.3271 348.478 67.8003C347.395 67.2734 346.205 66.9997 345 66.9997C343.795 66.9997 342.605 67.2734 341.522 67.8003C340.438 68.3271 339.488 69.0933 338.743 70.041C340.58 71.3161 342.764 71.9993 345 71.9993C347.236 71.9993 349.42 71.3161 351.257 70.041ZM345 50C342.826 50.0003 340.701 50.6447 338.893 51.852C337.085 53.0593 335.675 54.7752 334.842 56.7832C334.008 58.7911 333.789 61.0009 334.21 63.1337C334.632 65.2664 335.676 67.2263 337.211 68.766C338.143 67.5935 339.327 66.6464 340.676 65.9954C342.024 65.3443 343.502 65.0062 345 65.0062C346.498 65.0062 347.976 65.3443 349.324 65.9954C350.673 66.6464 351.857 67.5935 352.789 68.766C354.324 67.2263 355.368 65.2664 355.79 63.1337C356.211 61.0009 355.992 58.7911 355.158 56.7832C354.325 54.7752 352.915 53.0593 351.107 51.852C349.299 50.6447 347.174 50.0003 345 50V50ZM345 64C344.011 64 343.044 63.7068 342.222 63.1574C341.4 62.6079 340.759 61.8271 340.381 60.9134C340.002 59.9998 339.903 58.9945 340.096 58.0246C340.289 57.0546 340.765 56.1637 341.464 55.4645C342.164 54.7652 343.055 54.289 344.025 54.0961C344.994 53.9032 346 54.0022 346.913 54.3806C347.827 54.759 348.608 55.3999 349.157 56.2222C349.707 57.0444 350 58.0111 350 59C350 60.3261 349.473 61.5979 348.536 62.5355C347.598 63.4732 346.326 64 345 64ZM345 56C344.407 56 343.827 56.176 343.333 56.5056C342.84 56.8352 342.455 57.3038 342.228 57.852C342.001 58.4001 341.942 59.0033 342.058 59.5853C342.173 60.1672 342.459 60.7018 342.879 61.1213C343.298 61.5409 343.833 61.8266 344.415 61.9424C344.997 62.0581 345.6 61.9987 346.148 61.7716C346.696 61.5446 347.165 61.1601 347.494 60.6667C347.824 60.1734 348 59.5934 348 59C348 58.2044 347.684 57.4413 347.121 56.8787C346.559 56.3161 345.796 56 345 56V56Z" fill="white"/>
<path fill-rule="evenodd" clip-rule="evenodd" d="M40.589 14.147C40.5933 14.0791 40.5834 14.011 40.56 13.947C40.3659 13.7145 40.1132 13.5381 39.828 13.436C39.279 13.128 38.72 12.829 38.18 12.511C37.9349 12.2949 37.6401 12.1427 37.322 12.068C36.734 12.068 35.877 13.812 35.356 13.812C35.0552 13.7497 34.772 13.6212 34.527 13.436C32.8516 12.5414 31.4796 11.1694 30.585 9.49401C30.3998 9.24897 30.2713 8.9658 30.209 8.66501C30.209 8.14501 31.953 7.28701 31.953 6.69901C31.8783 6.38087 31.7261 6.08612 31.51 5.84101C31.192 5.30101 30.893 4.74101 30.585 4.19301C30.4829 3.90785 30.3065 3.65513 30.074 3.46101C30.0101 3.43758 29.9419 3.42771 29.874 3.43201C29.4144 3.45947 28.9623 3.56077 28.535 3.73201C28.0799 4.00738 27.7227 4.41874 27.514 4.90801C27.1988 5.45328 27.0287 6.07027 27.02 6.70001C27.0907 7.57436 27.3158 8.42926 27.685 9.22501C27.8926 9.81319 28.1607 10.3782 28.485 10.911C29.6978 12.7504 31.2716 14.3242 33.111 15.537C33.6437 15.8614 34.2088 16.1295 34.797 16.337C35.5929 16.7054 36.4478 16.9299 37.322 17C37.9519 16.9921 38.5692 16.8227 39.115 16.508C39.6043 16.2993 40.0156 15.9421 40.291 15.487C40.4616 15.0592 40.5622 14.6068 40.589 14.147Z" fill="white"/>
<path fill-rule="evenodd" clip-rule="evenodd" d="M438.01 17.566C438.01 17.6213 437.999 17.6761 437.978 17.7271C437.956 17.7781 437.925 17.8244 437.886 17.8634C437.847 17.9024 437.8 17.9333 437.749 17.9544C437.698 17.9754 437.643 17.9862 437.588 17.986H429.423C429.368 17.9862 429.313 17.9754 429.262 17.9544C429.211 17.9333 429.164 17.9024 429.125 17.8634C429.086 17.8244 429.055 17.7781 429.033 17.7271C429.012 17.6761 429.001 17.6213 429.001 17.566C428.999 17.1521 429.101 16.7442 429.297 16.3798C429.494 16.0154 429.778 15.706 430.125 15.48C430.837 15.128 430.563 15.414 431.436 15.054C431.795 14.8677 432.188 14.7557 432.591 14.725L432.367 13.813C432.158 13.5994 432.014 13.3311 431.952 13.039L431.662 11.217C431.622 10.9728 431.605 10.7254 431.612 10.478C431.706 10.0483 431.947 9.66513 432.294 9.39508C432.642 9.12504 433.072 8.98525 433.512 9.00005C433.958 8.95078 434.405 9.07747 434.759 9.35316C435.113 9.62884 435.345 10.0317 435.406 10.476C435.409 10.807 435.381 11.1375 435.321 11.463C435.321 11.463 435.321 11.463 435.329 11.463L435.12 12.774C435.087 13.1628 434.918 13.5276 434.643 13.804L434.419 14.712C434.823 14.7351 435.217 14.8446 435.575 15.033C436.448 15.393 436.175 15.124 436.886 15.476C437.233 15.7019 437.518 16.0113 437.714 16.3757C437.91 16.7402 438.012 17.1481 438.01 17.562V17.562V17.566Z" fill="#333333"/>
<path fill-rule="evenodd" clip-rule="evenodd" d="M464 4H481V21H464V4ZM479.906 12.5C479.905 14.0248 479.434 15.5122 478.556 16.7587C477.677 18.0053 476.436 18.9501 475 19.464V17.514C475.938 17.0542 476.727 16.3406 477.28 15.4544C477.832 14.5682 478.125 13.5448 478.125 12.5005C478.125 11.4562 477.832 10.4328 477.28 9.54661C476.727 8.66039 475.938 7.94684 475 7.487V8C475 8.26522 474.895 8.51957 474.707 8.70711C474.52 8.89464 474.265 9 474 9C473.735 9 473.48 8.89464 473.293 8.70711C473.105 8.51957 473 8.26522 473 8V4H477.033C477.289 4 477.535 4.10188 477.717 4.28323C477.898 4.46458 478 4.71054 478 4.967V5C478 5.26522 477.895 5.51957 477.707 5.70711C477.52 5.89464 477.265 6 477 6H475.961C477.149 6.62032 478.145 7.55394 478.84 8.69972C479.536 9.84549 479.904 11.1597 479.906 12.5V12.5ZM467.967 21C467.711 21 467.465 20.8981 467.283 20.7168C467.102 20.5354 467 20.2895 467 20.033V20C467 19.7348 467.105 19.4804 467.293 19.2929C467.48 19.1054 467.735 19 468 19H469.039C467.77 18.3348 466.723 17.3138 466.025 16.0622C465.328 14.8105 465.011 13.3826 465.113 11.9534C465.215 10.5243 465.731 9.15587 466.599 8.01598C467.468 6.87609 468.649 6.01423 470 5.536V7.486C469.062 7.94584 468.273 8.65939 467.72 9.54561C467.168 10.4318 466.875 11.4552 466.875 12.4995C466.875 13.5438 467.168 14.5672 467.72 15.4534C468.273 16.3396 469.062 17.0532 470 17.513V17C470 16.7348 470.105 16.4804 470.293 16.2929C470.48 16.1054 470.735 16 471 16C471.265 16 471.52 16.1054 471.707 16.2929C471.895 16.4804 472 16.7348 472 17V21H467.967Z" fill="white"/>
<path fill-rule="evenodd" clip-rule="evenodd" d="M3.007 93L8.007 103.564V105.007H3V80.995H8.007V82.438L3.007 93Z" fill="#4FAD00"/>
<path fill-rule="evenodd" clip-rule="evenodd" d="M3.007 120L8.007 130.564V132.007H3V108H8.007V109.443L3.007 120Z" fill="#FFC438"/>
<path fill-rule="evenodd" clip-rule="evenodd" d="M3.007 147L8.007 157.564V159.007H3V135H8.007V136.443L3.007 147Z" fill="#893CA9"/>
<path fill-rule="evenodd" clip-rule="evenodd" d="M3.007 174L8.007 184.564V186.007H3V162H8.007V163.443L3.007 174Z" fill="#2992D9"/>
<path fill-rule="evenodd" clip-rule="evenodd" d="M75.007 55L80.007 65.564V67.01H75V42.995H80.007V44.438L75.007 55Z" fill="#E52929"/>
<path fill-rule="evenodd" clip-rule="evenodd" d="M506 53C504.343 53 503 54.3432 503 56C503 57.6568 504.343 59 506 59C507.657 59 509 57.6568 509 56C509 54.3432 507.657 53 506 53ZM501 56C501 53.2386 503.239 51 506 51C508.761 51 511 53.2386 511 56C511 58.7614 508.761 61 506 61C503.239 61 501 58.7614 501 56Z" fill="#333333"/>
<path fill-rule="evenodd" clip-rule="evenodd" d="M513.748 68C512.86 64.5495 509.728 62 506 62C502.272 62 499.14 64.5495 498.252 68H500.341C501.165 65.6696 503.388 64 506 64C508.612 64 510.835 65.6696 511.659 68H513.748Z" fill="#333333"/>
<path fill-rule="evenodd" clip-rule="evenodd" d="M532 58.5C532 54.3579 535.358 51 539.5 51C543.642 51 547 54.3579 547 58.5C547 62.6421 543.642 66 539.5 66C535.358 66 532 62.6421 532 58.5ZM539.5 49C534.253 49 530 53.2533 530 58.5C530 63.7467 534.253 68 539.5 68C544.747 68 549 63.7467 549 58.5C549 53.2533 544.747 49 539.5 49ZM538 56.5C538 55.6716 538.672 55 539.5 55C540.328 55 541 55.6716 541 56.5C541 57.3284 540.328 58 539.5 58C538.672 58 538 57.3284 538 56.5ZM539.5 53C537.567 53 536 54.567 536 56.5C536 58.433 537.567 60 539.5 60C541.433 60 543 58.433 543 56.5C543 54.567 541.433 53 539.5 53Z" fill="#333333"/>
<path fill-rule="evenodd" clip-rule="evenodd" d="M533.576 64.5181C534.612 62.4127 536.921 61 539.5 61C542.079 61 544.389 62.4127 545.424 64.5181C544.932 65.0022 544.381 65.4266 543.783 65.7793C543.212 64.2073 541.566 63 539.5 63C537.434 63 535.788 64.2073 535.217 65.7793C534.619 65.4266 534.068 65.0023 533.576 64.5181Z" fill="#333333"/>
</svg>
