<svg width="29" height="803" viewBox="0 0 29 803" fill="none" xmlns="http://www.w3.org/2000/svg">
<path fill-rule="evenodd" clip-rule="evenodd" d="M29 6.506V33H0V0H22.494L29 6.506Z" fill="#CCCCCC"/>
<path fill-rule="evenodd" clip-rule="evenodd" d="M29 28H27V31H2V28H0V12H2V2H22V7H27V12H29V28Z" fill="white"/>
<path fill-rule="evenodd" clip-rule="evenodd" d="M29 61.506V88H0V55H22.494L29 61.506Z" fill="#CCCCCC"/>
<path fill-rule="evenodd" clip-rule="evenodd" d="M29 83H27V86H2V83H0V67H2V57H22V62H27V67H29V83Z" fill="white"/>
<path fill-rule="evenodd" clip-rule="evenodd" d="M29 116.506V143H0V110H22.494L29 116.506Z" fill="#CCCCCC"/>
<path fill-rule="evenodd" clip-rule="evenodd" d="M29 138H27V141H2V138H0V122H2V112H22V117H27V122H29V138Z" fill="white"/>
<path fill-rule="evenodd" clip-rule="evenodd" d="M29 171.506V198H0V165H22.494L29 171.506Z" fill="#CCCCCC"/>
<path fill-rule="evenodd" clip-rule="evenodd" d="M29 193H27V196H2V193H0V177H2V167H22V172H27V177H29V193Z" fill="white"/>
<path fill-rule="evenodd" clip-rule="evenodd" d="M29 226.506V253H0V220H22.494L29 226.506Z" fill="#CCCCCC"/>
<path fill-rule="evenodd" clip-rule="evenodd" d="M29 248H27V251H2V248H0V232H2V222H22V227H27V232H29V248Z" fill="white"/>
<path fill-rule="evenodd" clip-rule="evenodd" d="M29 281.506V308H0V275H22.494L29 281.506Z" fill="#CCCCCC"/>
<path fill-rule="evenodd" clip-rule="evenodd" d="M29 303H27V306H2V303H0V287H2V277H22V282H27V287H29V303Z" fill="white"/>
<path fill-rule="evenodd" clip-rule="evenodd" d="M29 336.506V363H0V330H22.494L29 336.506Z" fill="#CCCCCC"/>
<path fill-rule="evenodd" clip-rule="evenodd" d="M29 391.506V418H0V385H22.494L29 391.506Z" fill="#CCCCCC"/>
<path fill-rule="evenodd" clip-rule="evenodd" d="M29 446.506V473H0V440H22.494L29 446.506Z" fill="#CCCCCC"/>
<path fill-rule="evenodd" clip-rule="evenodd" d="M29 501.506V528H0V495H22.494L29 501.506Z" fill="#CCCCCC"/>
<path fill-rule="evenodd" clip-rule="evenodd" d="M29 556.506V583H0V550H22.494L29 556.506Z" fill="#CCCCCC"/>
<path fill-rule="evenodd" clip-rule="evenodd" d="M29 358H27V361H2V358H0V342H2V332H22V337H27V342H29V358Z" fill="white"/>
<path fill-rule="evenodd" clip-rule="evenodd" d="M29 413H27V416H2V413H0V397H2V387H22V392H27V397H29V413Z" fill="white"/>
<path fill-rule="evenodd" clip-rule="evenodd" d="M29 468H27V471H2V468H0V452H2V442H22V447H27V452H29V468Z" fill="white"/>
<path fill-rule="evenodd" clip-rule="evenodd" d="M29 523H27V526H2V523H0V507H2V497H22V502H27V507H29V523Z" fill="white"/>
<path fill-rule="evenodd" clip-rule="evenodd" d="M29 578H27V581H2V578H0V562H2V552H22V557H27V562H29V578Z" fill="white"/>
<path d="M29 288H0V302H29V288Z" fill="#2D52A3"/>
<path d="M29 233H0V247H29V233Z" fill="#FFAF00"/>
<path d="M29 178H0V192H29V178Z" fill="#679A24"/>
<path d="M29 123H0V137H29V123Z" fill="#6B37AC"/>
<path d="M29 13H0V27H29V13Z" fill="#D21B1B"/>
<path d="M29 68H0V82H29V68Z" fill="#2E7CC4"/>
<path fill-rule="evenodd" clip-rule="evenodd" d="M25 19V21H22V24H20V16H25V18H22V19H25ZM15 24H12V16H15C16.0609 16 17.0783 16.4214 17.8284 17.1716C18.5786 17.9217 19 18.9391 19 20C19 21.0609 18.5786 22.0783 17.8284 22.8284C17.0783 23.5786 16.0609 24 15 24ZM15 18H14V22H15C15.5304 22 16.0391 21.7893 16.4142 21.4142C16.7893 21.0391 17 20.5304 17 20C17 19.4696 16.7893 18.9609 16.4142 18.5858C16.0391 18.2107 15.5304 18 15 18ZM8.5 21H6V24H4V16H8.5C9.16304 16 9.79892 16.2634 10.2678 16.7322C10.7366 17.2011 11 17.837 11 18.5C11 19.163 10.7366 19.7989 10.2678 20.2678C9.79892 20.7366 9.16304 21 8.5 21V21ZM8.5 18H6V19H8.5C8.63261 19 8.75978 18.9473 8.85355 18.8535C8.94731 18.7598 9 18.6326 9 18.5C9 18.3674 8.94731 18.2402 8.85355 18.1465C8.75978 18.0527 8.63261 18 8.5 18Z" fill="white"/>
<path fill-rule="evenodd" clip-rule="evenodd" d="M25.325 73.5125C24.962 73.1837 24.4898 73.0012 24 73.0005C23.6751 72.9985 23.3545 73.0757 23.0661 73.2254C22.7777 73.3751 22.5301 73.5928 22.3448 73.8598C22.1594 74.1267 22.0419 74.4347 22.0024 74.7573C21.9629 75.0798 22.0026 75.4071 22.118 75.7109C22.2334 76.0146 22.4211 76.2857 22.6649 76.5006C22.9086 76.7155 23.201 76.8678 23.5168 76.9443C23.8327 77.0208 24.1624 77.0191 24.4774 76.9395C24.7925 76.86 25.0834 76.7048 25.325 76.4875L26.435 78.1535C25.8442 78.6145 25.1358 78.9003 24.3906 78.9783C23.6453 79.0563 22.8931 78.9233 22.2197 78.5947C21.5463 78.266 20.9787 77.7547 20.5817 77.1192C20.1847 76.4836 19.9742 75.7494 19.9742 75C19.9742 74.2507 20.1847 73.5164 20.5817 72.8808C20.9787 72.2453 21.5463 71.734 22.2197 71.4054C22.8931 71.0767 23.6453 70.9437 24.3906 71.0217C25.1358 71.0997 25.8442 71.3855 26.435 71.8465L25.325 73.5125ZM15 79.0005C14.2089 79.0005 13.4355 78.7659 12.7777 78.3264C12.1199 77.8868 11.6072 77.2621 11.3045 76.5312C11.0017 75.8003 10.9225 74.9961 11.0769 74.2201C11.2312 73.4442 11.6122 72.7315 12.1716 72.1721C12.731 71.6127 13.4437 71.2317 14.2196 71.0774C14.9956 70.923 15.7998 71.0022 16.5307 71.305C17.2616 71.6077 17.8864 72.1204 18.3259 72.7782C18.7654 73.436 19 74.2094 19 75.0005C19 76.0614 18.5786 77.0788 17.8284 77.8289C17.0783 78.5791 16.0609 79.0005 15 79.0005ZM15 73.0005C14.6044 73.0005 14.2178 73.1178 13.8889 73.3376C13.56 73.5573 13.3036 73.8697 13.1522 74.2351C13.0009 74.6006 12.9613 75.0027 13.0384 75.3907C13.1156 75.7786 13.3061 76.135 13.5858 76.4147C13.8655 76.6944 14.2219 76.8849 14.6098 76.9621C14.9978 77.0392 15.3999 76.9996 15.7654 76.8483C16.1308 76.6969 16.4432 76.4405 16.6629 76.1116C16.8827 75.7828 17 75.3961 17 75.0005C17 74.4701 16.7893 73.9614 16.4142 73.5863C16.0391 73.2112 15.5304 73.0005 15 73.0005ZM6 79.0005H3V71.0005H6C7.06087 71.0005 8.07828 71.4219 8.82843 72.1721C9.57858 72.9222 10 73.9396 10 75.0005C10 76.0614 9.57858 77.0788 8.82843 77.8289C8.07828 78.5791 7.06087 79.0005 6 79.0005ZM6 73.0005H5V77.0005H6C6.53043 77.0005 7.03914 76.7898 7.41422 76.4147C7.78929 76.0396 8 75.5309 8 75.0005C8 74.4701 7.78929 73.9614 7.41422 73.5863C7.03914 73.2112 6.53043 73.0005 6 73.0005Z" fill="white"/>
<path fill-rule="evenodd" clip-rule="evenodd" d="M26 132V134H21V126H26V128H23V129H26V131H23V132H26ZM15 134V126H17V132H20V134H15ZM11 126H13V134H11V126ZM6 134H4V126H9V128H6V129H9V131H6V134Z" fill="white"/>
<path fill-rule="evenodd" clip-rule="evenodd" d="M21.46 183.875C21.607 183.937 21.7588 183.986 21.914 184.022C22.085 184.085 22.274 184.122 22.481 184.185C22.911 184.332 23.285 184.477 23.603 184.621C23.8919 184.746 24.1597 184.914 24.397 185.121C24.6037 185.307 24.7648 185.537 24.868 185.795C24.9793 186.095 25.0323 186.414 25.024 186.734C25.0383 187.057 24.9714 187.378 24.8296 187.669C24.6877 187.959 24.4754 188.21 24.212 188.397C23.4774 188.843 22.6223 189.05 21.765 188.989C21.4337 188.991 21.1026 188.971 20.774 188.928C20.5107 188.893 20.2496 188.844 19.992 188.779C19.7932 188.729 19.5978 188.666 19.407 188.591C19.2666 188.535 19.1291 188.473 18.995 188.403L19.52 186.564C19.8127 186.707 20.1189 186.819 20.434 186.901C20.8692 187.009 21.3167 187.059 21.765 187.05C21.942 187.056 22.119 187.035 22.29 186.989C22.4362 186.959 22.5757 186.903 22.702 186.824C22.7964 186.764 22.8712 186.677 22.917 186.575C22.9587 186.517 22.9799 186.447 22.977 186.375C22.977 186.125 22.849 186.105 22.595 185.939C22.2137 185.769 21.815 185.642 21.406 185.559C21.136 185.471 20.706 185.369 20.438 185.259C20.1764 185.15 19.9314 185.005 19.71 184.828C19.4949 184.655 19.3165 184.441 19.185 184.198C19.0436 183.92 18.9748 183.61 18.985 183.298C18.9799 182.967 19.0536 182.639 19.2 182.342C19.3442 182.057 19.5527 181.809 19.809 181.618C20.0961 181.407 20.4199 181.251 20.764 181.159C21.2294 181.048 21.7066 180.994 22.185 180.999C22.6719 180.99 23.1578 181.046 23.63 181.165C23.9745 181.254 24.3094 181.376 24.63 181.53L24.092 183.014C23.83 182.966 23.792 183.025 23.323 182.94C22.9875 182.865 22.6456 182.822 22.302 182.813C21.9725 182.79 21.6423 182.849 21.341 182.984C21.2477 183.006 21.1634 183.056 21.0997 183.127C21.0361 183.199 20.9964 183.289 20.986 183.384C20.9818 183.491 21.0202 183.596 21.093 183.675C21.2037 183.761 21.3277 183.829 21.46 183.875V183.875ZM13.009 189V181H15.009V187H18.009V189H13.009ZM9.56801 189L8.009 186.759L6.44901 189H4L6.784 185L4 181H6.44901L8.009 183.24L9.56801 181H12.018L9.23401 185L12.018 189H9.56801Z" fill="white"/>
<path fill-rule="evenodd" clip-rule="evenodd" d="M14.5 241H12V244H10V236H14.5C15.163 236 15.7989 236.263 16.2678 236.732C16.7366 237.201 17 237.837 17 238.5C17 239.163 16.7366 239.799 16.2678 240.268C15.7989 240.737 15.163 241 14.5 241ZM14.5 238H12V239H14.5C14.6326 239 14.7598 238.947 14.8535 238.854C14.9473 238.76 15 238.633 15 238.5C15 238.367 14.9473 238.24 14.8535 238.146C14.7598 238.053 14.6326 238 14.5 238ZM24 244H22C21.3431 244.001 20.696 243.841 20.1159 243.533C19.5357 243.224 19.0404 242.778 18.6737 242.233C18.307 241.688 18.0801 241.061 18.0131 240.408C17.9462 239.754 18.0412 239.094 18.2898 238.486C18.5383 237.878 18.9328 237.341 19.4384 236.921C19.944 236.502 20.5451 236.214 21.1886 236.082C21.8321 235.95 22.4982 235.978 23.128 236.165C23.7579 236.351 24.3321 236.69 24.8 237.151L23.559 238.751L23.538 238.741C23.2971 238.443 22.9758 238.221 22.6124 238.101C22.2489 237.981 21.8586 237.967 21.4877 238.062C21.1168 238.157 20.781 238.357 20.5201 238.637C20.2592 238.917 20.0842 239.266 20.0158 239.643C19.9475 240.019 19.9888 240.408 20.1346 240.762C20.2805 241.116 20.525 241.42 20.8389 241.64C21.1528 241.859 21.523 241.983 21.9056 241.998C22.2881 242.013 22.6669 241.918 22.997 241.724V240H24.997V243L24 244ZM5.5 244H3.5C3.33208 244 3.16456 243.983 3 243.95V241C3 241.265 3.10536 241.52 3.29289 241.707C3.48043 241.895 3.73478 242 4 242H5C5.26522 242 5.51957 241.895 5.70711 241.707C5.89464 241.52 6 241.265 6 241V236H8V241.5C8 242.163 7.7366 242.799 7.26776 243.268C6.79892 243.737 6.16304 244 5.5 244Z" fill="white"/>
<path fill-rule="evenodd" clip-rule="evenodd" d="M26 294V296H23V299H21V291H26V293H23V294H26ZM17 299H15V291H20V293H17V294H20V296H17V299ZM11 291H13V299H11V291ZM7 299H5V293H3V291H9V293H7V299Z" fill="white"/>
<path d="M29 343H0V357H29V343Z" fill="#3387DE"/>
<path d="M29 398H0V412H29V398Z" fill="#039200"/>
<path d="M29 453H0V467H29V453Z" fill="#C0432A"/>
<path d="M29 508H0V522H29V508Z" fill="#DF2649"/>
<path d="M29 563H0V577H29V563Z" fill="#3387DE"/>
<path fill-rule="evenodd" clip-rule="evenodd" d="M24 348V354H22V348H20V346H26V348H24ZM16.559 354L15 351.759L13.44 354H10.991L13.775 350L10.991 346H13.44L15 348.24L16.559 346H19.009L16.225 350L19.009 354H16.559ZM8 354H6V348H4V346H10V348H8V354Z" fill="white"/>
<path fill-rule="evenodd" clip-rule="evenodd" d="M20.0077 409H18.0077V401H23.0077V403H20.0077V404H23.0077V406H20.0077V409ZM14.0077 401H16.0077V409H14.0077V401ZM11.0077 409H9.0077C8.35081 409.001 7.70371 408.841 7.12358 408.533C6.54344 408.224 6.04814 407.778 5.68141 407.233C5.31467 406.688 5.0878 406.061 5.02084 405.408C4.95387 404.754 5.04888 404.094 5.29746 403.486C5.54604 402.878 5.94054 402.341 6.44612 401.921C6.95169 401.502 7.55279 401.214 8.19628 401.082C8.83978 400.95 9.50588 400.978 10.1357 401.165C10.7656 401.351 11.3398 401.69 11.8077 402.151L10.5667 403.751L10.5457 403.741C10.3048 403.443 9.98349 403.221 9.62005 403.101C9.25661 402.981 8.86627 402.967 8.49539 403.062C8.1245 403.157 7.78867 403.357 7.52777 403.637C7.26686 403.917 7.09186 404.266 7.02354 404.643C6.95522 405.019 6.99645 405.408 7.14234 405.762C7.28824 406.116 7.53267 406.42 7.84658 406.64C8.1605 406.859 8.53071 406.983 8.91326 406.998C9.29582 407.013 9.67462 406.918 10.0047 406.724V405H12.0047V408L11.0077 409Z" fill="white"/>
<path fill-rule="evenodd" clip-rule="evenodd" d="M25 464H23C22.3432 464.001 21.6963 463.84 21.1163 463.532C20.5363 463.224 20.0411 462.778 19.6745 462.233C19.3079 461.688 19.0811 461.061 19.0141 460.408C18.9472 459.754 19.0422 459.095 19.2907 458.487C19.5392 457.879 19.9336 457.341 20.439 456.922C20.9445 456.502 21.5454 456.214 22.1888 456.082C22.8322 455.95 23.4982 455.978 24.128 456.164C24.7578 456.351 25.332 456.689 25.8 457.15L24.559 458.75L24.538 458.739C24.2971 458.441 23.9758 458.219 23.6124 458.099C23.2489 457.979 22.8586 457.965 22.4877 458.06C22.1168 458.155 21.781 458.355 21.5201 458.635C21.2592 458.915 21.0842 459.264 21.0158 459.641C20.9475 460.017 20.9888 460.406 21.1346 460.76C21.2805 461.114 21.525 461.418 21.8389 461.638C22.1528 461.857 22.523 461.981 22.9056 461.996C23.2881 462.011 23.6669 461.916 23.997 461.722V460H25.997V463L25 464ZM16.531 464L13 459.324V464H11V456H12.469L16 460.675V456H18V464H16.531ZM7.5 461H5V464H3V456H7.5C8.16304 456 8.79892 456.263 9.26776 456.732C9.7366 457.201 10 457.837 10 458.5C10 459.163 9.7366 459.799 9.26776 460.268C8.79892 460.737 8.16304 461 7.5 461ZM7.5 458H5V459H7.5C7.63261 459 7.75978 458.947 7.85355 458.854C7.94731 458.76 8 458.633 8 458.5C8 458.367 7.94731 458.24 7.85355 458.146C7.75978 458.053 7.63261 458 7.5 458Z" fill="white"/>
<path fill-rule="evenodd" clip-rule="evenodd" d="M24.5 516H22V519H20V511H24.5C25.163 511 25.7989 511.263 26.2678 511.732C26.7366 512.201 27 512.837 27 513.5C27 514.163 26.7366 514.799 26.2678 515.268C25.7989 515.737 25.163 516 24.5 516ZM24.5 513H22V514H24.5C24.6326 514 24.7598 513.947 24.8535 513.854C24.9473 513.76 25 513.633 25 513.5C25 513.367 24.9473 513.24 24.8535 513.146C24.7598 513.053 24.6326 513 24.5 513ZM16.987 514.407L15.01 517.529L12.981 514.429L13 519L11 519.01V511H13.2L15 514.1L16.8 511H19V519.015L17 519.005L16.987 514.407ZM15 517.544L15.01 517.529L15.02 517.544H15ZM10 516.5C10 517.163 9.7366 517.799 9.26776 518.268C8.79892 518.737 8.16304 519 7.5 519H3V511H7.5C8.16304 511 8.79892 511.263 9.26776 511.732C9.7366 512.201 10 512.837 10 513.5C9.95779 513.809 9.84584 514.105 9.67261 514.365C9.49938 514.625 9.26939 514.842 9 515C9.28552 515.138 9.52887 515.35 9.70474 515.613C9.88061 515.877 9.98257 516.183 10 516.5V516.5ZM7.5 513H5V514H7.5C7.63261 514 7.75978 513.947 7.85355 513.854C7.94731 513.76 8 513.633 8 513.5C8 513.367 7.94731 513.24 7.85355 513.146C7.75978 513.053 7.63261 513 7.5 513ZM7.5 516H5V517H7.5C7.63261 517 7.75978 516.947 7.85355 516.854C7.94731 516.76 8 516.633 8 516.5C8 516.367 7.94731 516.24 7.85355 516.146C7.75978 516.053 7.63261 516 7.5 516Z" fill="white"/>
<path fill-rule="evenodd" clip-rule="evenodd" d="M19 574H22C23.0609 574 24.0783 573.579 24.8284 572.828C25.5786 572.078 26 571.061 26 570C26 568.939 25.5786 567.922 24.8284 567.172C24.0783 566.421 23.0609 566 22 566H19V574ZM21 568H22C22.5304 568 23.0391 568.211 23.4142 568.586C23.7893 568.961 24 569.47 24 570C24 570.53 23.7893 571.039 23.4142 571.414C23.0391 571.789 22.5304 572 22 572H21V568ZM6 571H8.5C9.16304 571 9.79892 570.737 10.2678 570.268C10.7366 569.799 11 569.163 11 568.5C11 567.837 10.7366 567.201 10.2678 566.732C9.79892 566.263 9.16304 566 8.5 566H4V574H6V571ZM6 568H8.5C8.63261 568 8.75978 568.053 8.85355 568.146C8.94731 568.24 9 568.367 9 568.5C9 568.633 8.94731 568.76 8.85355 568.854C8.75978 568.947 8.63261 569 8.5 569H6V568ZM14.914 569.024C14.7588 568.988 14.607 568.938 14.46 568.877C14.3277 568.83 14.2037 568.763 14.093 568.677C14.0202 568.598 13.9818 568.493 13.986 568.386C13.9964 568.291 14.0361 568.201 14.0997 568.129C14.1634 568.058 14.2477 568.007 14.341 567.986C14.6423 567.85 14.9725 567.792 15.302 567.815C15.6456 567.824 15.9875 567.867 16.323 567.942C16.5907 567.99 16.718 567.992 16.8267 567.993C16.9084 567.994 16.9796 567.995 17.092 568.016L17.63 566.532C17.3094 566.378 16.9745 566.255 16.63 566.167C16.1578 566.048 15.6719 565.992 15.185 566.001C14.7066 565.996 14.2294 566.05 13.764 566.161C13.4199 566.253 13.0961 566.409 12.809 566.62C12.5527 566.811 12.3442 567.059 12.2 567.344C12.0536 567.641 11.9799 567.969 11.985 568.3C11.9748 568.612 12.0436 568.922 12.185 569.2C12.3165 569.443 12.4949 569.657 12.71 569.83C12.9314 570.007 13.1764 570.152 13.438 570.261C13.6075 570.33 13.8418 570.397 14.0594 570.458C14.1859 570.494 14.3068 570.529 14.406 570.561C14.815 570.644 15.2137 570.771 15.595 570.941C15.6422 570.972 15.6851 570.998 15.7236 571.021C15.8922 571.122 15.977 571.173 15.977 571.377C15.9799 571.448 15.9587 571.519 15.917 571.577C15.8712 571.679 15.7964 571.766 15.702 571.826C15.5757 571.905 15.4362 571.961 15.29 571.991C15.119 572.037 14.942 572.057 14.765 572.052C14.3167 572.061 13.8692 572.011 13.434 571.903C13.1189 571.821 12.8127 571.708 12.52 571.566L11.995 573.405C12.1291 573.474 12.2666 573.537 12.407 573.593C12.5978 573.668 12.7932 573.731 12.992 573.781C13.2496 573.845 13.5107 573.895 13.774 573.93C14.1026 573.972 14.4337 573.993 14.765 573.991C15.6223 574.052 16.4774 573.845 17.212 573.399C17.4754 573.212 17.6877 572.961 17.8296 572.671C17.9714 572.38 18.0383 572.059 18.024 571.736C18.0323 571.416 17.9793 571.097 17.868 570.797C17.7648 570.539 17.6037 570.308 17.397 570.123C17.1597 569.916 16.8919 569.748 16.603 569.623C16.285 569.479 15.911 569.334 15.481 569.187C15.3963 569.161 15.3146 569.14 15.2359 569.119C15.1223 569.089 15.015 569.061 14.914 569.024Z" fill="white"/>
<path fill-rule="evenodd" clip-rule="evenodd" d="M29 611.506V638H0V605H22.494L29 611.506Z" fill="#CCCCCC"/>
<path fill-rule="evenodd" clip-rule="evenodd" d="M29 666.506V693H0V660H22.494L29 666.506Z" fill="#CCCCCC"/>
<path fill-rule="evenodd" clip-rule="evenodd" d="M29 721.506V748H0V715H22.494L29 721.506Z" fill="#CCCCCC"/>
<path fill-rule="evenodd" clip-rule="evenodd" d="M29 776.506V803H0V770H22.494L29 776.506Z" fill="#CCCCCC"/>
<path fill-rule="evenodd" clip-rule="evenodd" d="M29 633H27V636H2V633H0V617H2V607H22V612H27V617H29V633Z" fill="white"/>
<path fill-rule="evenodd" clip-rule="evenodd" d="M29 688H27V691H2V688H0V672H2V662H22V667H27V672H29V688Z" fill="white"/>
<path fill-rule="evenodd" clip-rule="evenodd" d="M29 743H27V746H2V743H0V727H2V717H22V722H27V727H29V743Z" fill="white"/>
<path fill-rule="evenodd" clip-rule="evenodd" d="M29 798H27V801H2V798H0V782H2V772H22V777H27V782H29V798Z" fill="white"/>
<path d="M29 618H0V632H29V618Z" fill="#91338B"/>
<path d="M29 673H0V687H29V673Z" fill="#E01300"/>
<path d="M29 728H0V742H29V728Z" fill="#D24628"/>
<path d="M29 783H0V797H29V783Z" fill="#D24628"/>
<path fill-rule="evenodd" clip-rule="evenodd" d="M7.7 629L5.98 626H5V629H3V621H7.5C8.09934 620.999 8.67892 621.214 9.13268 621.606C9.58643 621.997 9.884 622.539 9.97093 623.132C10.0579 623.725 9.92835 624.33 9.60608 624.835C9.28381 625.34 8.79035 625.713 8.216 625.884L10 629H7.7ZM7.5 623H5V624H7.5C7.63261 624 7.75978 623.947 7.85355 623.854C7.94731 623.76 8 623.633 8 623.5C8 623.367 7.94731 623.24 7.85355 623.146C7.75978 623.053 7.63261 623 7.5 623ZM24.7 629L22.98 626H22V629H20V621H24.5C25.0993 620.999 25.6789 621.214 26.1327 621.606C26.5864 621.997 26.884 622.539 26.9709 623.132C27.0579 623.725 26.9283 624.33 26.6061 624.835C26.2838 625.34 25.7903 625.713 25.216 625.884L27 629H24.7ZM24.5 623H22V624H24.5C24.6326 624 24.7598 623.947 24.8535 623.854C24.9473 623.76 25 623.633 25 623.5C25 623.367 24.9473 623.24 24.8535 623.146C24.7598 623.053 24.6326 623 24.5 623ZM10.8572 629H12.9884L13.3566 628H16.6434L17.0116 629H19.1428L16.4384 621.655L16.1974 621H15.5H14.5H13.8025L13.5616 621.655L10.8572 629ZM15.907 626L15 623.536L14.0929 626H15.907Z" fill="white"/>
<path fill-rule="evenodd" clip-rule="evenodd" d="M12 684H5V682.389L8.85875 678H5V676H12V677.611L8.14125 682H12V684ZM14 676H16V684H14V676ZM22.5 681H20V684H18V676H22.5C23.163 676 23.7989 676.263 24.2678 676.732C24.7366 677.201 25 677.837 25 678.5C25 679.163 24.7366 679.799 24.2678 680.268C23.7989 680.737 23.163 681 22.5 681ZM22.5 678H20V679H22.5C22.6326 679 22.7598 678.947 22.8535 678.854C22.9473 678.76 23 678.633 23 678.5C23 678.367 22.9473 678.24 22.8535 678.146C22.7598 678.053 22.6326 678 22.5 678Z" fill="white"/>
<path fill-rule="evenodd" clip-rule="evenodd" d="M8.5 736H6V739H4V731H8.5C9.16304 731 9.79892 731.263 10.2678 731.732C10.7366 732.201 11 732.837 11 733.5C11 734.163 10.7366 734.799 10.2678 735.268C9.79892 735.737 9.16304 736 8.5 736V736ZM8.5 733H6V734H8.5C8.63261 734 8.75978 733.947 8.85355 733.854C8.94731 733.76 9 733.633 9 733.5C9 733.367 8.94731 733.24 8.85355 733.146C8.75978 733.053 8.63261 733 8.5 733ZM16.5 736H14V739H12V731H16.5C17.163 731 17.7989 731.263 18.2678 731.732C18.7366 732.201 19 732.837 19 733.5C19 734.163 18.7366 734.799 18.2678 735.268C17.7989 735.737 17.163 736 16.5 736V736ZM16.5 733H14V734H16.5C16.6326 734 16.7598 733.947 16.8535 733.854C16.9473 733.76 17 733.633 17 733.5C17 733.367 16.9473 733.24 16.8535 733.146C16.7598 733.053 16.6326 733 16.5 733ZM24 733V739H22V733H20V731H26V733H24Z" fill="white"/>
<path fill-rule="evenodd" clip-rule="evenodd" d="M5.32031 791H4V794H2V786L5.32031 786C5.98335 786 6.61923 786.263 7.08807 786.732C7.55691 787.201 7.82031 787.837 7.82031 788.5C7.82031 789.163 7.55691 789.799 7.08807 790.268C6.61923 790.737 5.98335 791 5.32031 791ZM5.5 788H4V789H5.5C5.63261 789 5.75978 788.947 5.85355 788.854C5.94731 788.76 6 788.633 6 788.5C6 788.367 5.94731 788.24 5.85355 788.146C5.75978 788.053 5.63261 788 5.5 788ZM12.2322 791H11V794H9V786L12.2322 786C12.8953 786 13.5312 786.263 14 786.732C14.4688 787.201 14.7322 787.837 14.7322 788.5C14.7322 789.163 14.4688 789.799 14 790.268C13.5312 790.737 12.8953 791 12.2322 791ZM12.5 788H11V789H12.5C12.6326 789 12.7598 788.947 12.8535 788.854C12.9473 788.76 13 788.633 13 788.5C13 788.367 12.9473 788.24 12.8535 788.146C12.7598 788.053 12.6326 788 12.5 788ZM19 788V794H17V788H15V786H21V788H19Z" fill="white"/>
<path d="M21 786H23.3L28 794H25.7L21 786Z" fill="white"/>
<path d="M28 786H25.7L21 794H23.3L28 786Z" fill="white"/>
</svg>
